<svg width="123" height="50" viewBox="0 0 123 50" fill="none" xmlns="http://www.w3.org/2000/svg">
<path d="M9.14969 44.6381H4.1071V49.8212H0.97998V36.8098H9.65751V39.2316H4.1071V42.2253H9.14969V44.6381Z" fill="white"/>
<path d="M14.2903 49.8212H11.1721V36.8098H14.2903V49.8212Z" fill="white"/>
<path d="M26.38 39.2316H22.4867V49.8212H19.3596V39.2316H15.5376V36.8098H26.38V39.2316Z" fill="white"/>
<path d="M31.2177 47.4084H37.4185V49.8212H27.3155V48.168L33.4985 39.2316H27.2799V36.8098H37.3561V38.4184L31.2177 47.4084Z" fill="white"/>
<path d="M45.5347 46.3628C45.5347 45.9041 45.3714 45.5466 45.0447 45.2904C44.724 45.0343 44.1568 44.7692 43.3431 44.4951C42.5294 44.2211 41.8642 43.956 41.3474 43.6998C39.6666 42.8717 38.8261 41.7338 38.8261 40.2861C38.8261 39.5652 39.034 38.9307 39.4498 38.3826C39.8715 37.8286 40.4654 37.3996 41.2316 37.0958C41.9978 36.786 42.859 36.6311 43.8153 36.6311C44.7478 36.6311 45.5823 36.7979 46.3187 37.1315C47.0612 37.4652 47.6373 37.9418 48.0471 38.5614C48.4569 39.175 48.6619 39.878 48.6619 40.6703H45.5436C45.5436 40.1401 45.3803 39.729 45.0536 39.4371C44.7329 39.1452 44.2964 38.9992 43.744 38.9992C43.1857 38.9992 42.7432 39.1244 42.4165 39.3746C42.0958 39.6188 41.9354 39.9316 41.9354 40.3129C41.9354 40.6465 42.1136 40.9504 42.47 41.2244C42.8264 41.4925 43.453 41.7725 44.3498 42.0644C45.2467 42.3504 45.9832 42.6602 46.5593 42.9938C47.961 43.804 48.6619 44.9211 48.6619 46.3449C48.6619 47.4828 48.2342 48.3765 47.3789 49.0259C46.5237 49.6752 45.3506 49.9999 43.8598 49.9999C42.8085 49.9999 41.8553 49.8123 41 49.4369C40.1506 49.0556 39.5092 48.5373 39.0756 47.882C38.6479 47.2207 38.4341 46.4611 38.4341 45.6032H41.5702C41.5702 46.3003 41.7483 46.8156 42.1047 47.1492C42.467 47.4769 43.0521 47.6407 43.8598 47.6407C44.3765 47.6407 44.7834 47.5305 45.0804 47.3101C45.3833 47.0837 45.5347 46.7679 45.5347 46.3628Z" fill="white"/>
<path d="M53.5975 49.8212H50.4793V36.8098H53.5975V49.8212Z" fill="white"/>
<path d="M59.8785 36.8098L62.774 45.8624L65.6606 36.8098H69.7766V49.8212H66.6406V46.7828L66.9435 40.5631L63.8074 49.8212H61.7405L58.5956 40.5542L58.8985 46.7828V49.8212H55.7714V36.8098H59.8785Z" fill="white"/>
<path d="M75.8794 36.8098L78.7748 45.8624L81.6614 36.8098H85.7775V49.8212H82.6414V46.7828L82.9443 40.5631L79.8083 49.8212H77.7414L74.5965 40.5542L74.8994 46.7828V49.8212H71.7722V36.8098H75.8794Z" fill="white"/>
<path d="M98.7581 43.5836C98.7581 44.8526 98.5235 45.9756 98.0543 46.9526C97.5851 47.9297 96.9169 48.6833 96.0497 49.2135C95.1885 49.7378 94.2055 49.9999 93.1008 49.9999C91.9961 49.9999 91.0161 49.7467 90.1608 49.2403C89.3055 48.728 88.6373 47.9982 88.1562 47.0509C87.6811 46.1037 87.4316 45.0164 87.4078 43.7891V43.0564C87.4078 41.7814 87.6395 40.6584 88.1028 39.6873C88.572 38.7103 89.2402 37.9567 90.1073 37.4264C90.9804 36.8962 91.9723 36.6311 93.083 36.6311C94.1818 36.6311 95.1618 36.8932 96.023 37.4175C96.8842 37.9418 97.5524 38.6894 98.0276 39.6605C98.5087 40.6257 98.7522 41.7338 98.7581 42.9849V43.5836ZM95.5775 43.0385C95.5775 41.7457 95.3608 40.7657 94.9272 40.0984C94.4995 39.4252 93.8848 39.0886 93.083 39.0886C91.515 39.0886 90.6864 40.2682 90.5973 42.6274L90.5884 43.5836C90.5884 44.8585 90.7993 45.8385 91.221 46.5237C91.6427 47.2088 92.2693 47.5514 93.1008 47.5514C93.8907 47.5514 94.4995 47.2147 94.9272 46.5415C95.3548 45.8683 95.5716 44.9002 95.5775 43.6372V43.0385Z" fill="white"/>
<path d="M111.204 49.8212H108.095L103.498 41.7248V49.8212H100.371V36.8098H103.498L108.086 44.9062V36.8098H111.204V49.8212Z" fill="white"/>
<path d="M119.873 46.3628C119.873 45.9041 119.71 45.5466 119.383 45.2904C119.062 45.0343 118.495 44.7692 117.681 44.4951C116.867 44.2211 116.202 43.956 115.686 43.6998C114.005 42.8717 113.164 41.7338 113.164 40.2861C113.164 39.5652 113.372 38.9307 113.788 38.3826C114.21 37.8286 114.804 37.3996 115.57 37.0958C116.336 36.786 117.197 36.6311 118.153 36.6311C119.086 36.6311 119.92 36.7979 120.657 37.1315C121.399 37.4652 121.975 37.9418 122.385 38.5614C122.795 39.175 123 39.878 123 40.6703H119.882C119.882 40.1401 119.718 39.729 119.392 39.4371C119.071 39.1452 118.634 38.9992 118.082 38.9992C117.524 38.9992 117.081 39.1244 116.755 39.3746C116.434 39.6188 116.274 39.9316 116.274 40.3129C116.274 40.6465 116.452 40.9504 116.808 41.2244C117.164 41.4925 117.791 41.7725 118.688 42.0644C119.585 42.3504 120.321 42.6602 120.897 42.9938C122.299 43.804 123 44.9211 123 46.3449C123 47.4828 122.572 48.3765 121.717 49.0259C120.862 49.6752 119.689 49.9999 118.198 49.9999C117.147 49.9999 116.193 49.8123 115.338 49.4369C114.489 49.0556 113.847 48.5373 113.414 47.882C112.986 47.2207 112.772 46.4611 112.772 45.6032H115.908C115.908 46.3003 116.086 46.8156 116.443 47.1492C116.805 47.4769 117.39 47.6407 118.198 47.6407C118.715 47.6407 119.122 47.5305 119.418 47.3101C119.721 47.0837 119.873 46.7679 119.873 46.3628Z" fill="white"/>
<path fill-rule="evenodd" clip-rule="evenodd" d="M14.3705 15.5738L19.4956 21.2186L21.2542 19.4042L14.4207 11.8442L0 26.309H3.66798L14.3705 15.5738Z" fill="white"/>
<path fill-rule="evenodd" clip-rule="evenodd" d="M21.3546 26.3087L22.9123 24.6959L41.7547 4.73758L60.6473 24.6959L62.2049 26.3087H63.1596H66.7773L62.9084 22.2263L61.5015 20.7647L55.7232 14.6663L41.7547 0L27.8364 14.6663L22.0078 20.7647L20.6512 22.2263L16.7822 26.3087H20.4H21.3546Z" fill="white"/>
<path fill-rule="evenodd" clip-rule="evenodd" d="M69.1892 15.5738L64.0139 21.2186L62.3055 19.4042L69.139 11.8442L83.5597 26.309H79.8917L69.1892 15.5738Z" fill="white"/>
<path fill-rule="evenodd" clip-rule="evenodd" d="M38.7901 21.6226H44.7694V15.6243H38.7901V21.6226Z" fill="white"/>
</svg>
