<svg width="16" height="22" viewBox="0 0 16 22" fill="none" xmlns="http://www.w3.org/2000/svg">
<path fill-rule="evenodd" clip-rule="evenodd" d="M8.06498 0.440002V0.443392C12.4591 0.51558 16 4.21362 16 8.76843C16 14.9061 9.02183 20.7324 8 21.56C6.97834 20.7322 0 14.9063 0 8.76843C0 4.21362 3.54102 0.51558 7.93502 0.443392V0.440002C7.94607 0.440002 7.95701 0.440345 7.96788 0.440686C7.97863 0.441023 7.98931 0.441358 8 0.441358C8.01069 0.441358 8.02138 0.441023 8.03212 0.440686C8.04299 0.440345 8.05393 0.440002 8.06498 0.440002ZM8 11.44C9.65685 11.44 11 10.0969 11 8.44C11 6.78315 9.65685 5.44 8 5.44C6.34315 5.44 5 6.78315 5 8.44C5 10.0969 6.34315 11.44 8 11.44Z" fill="white"/>
</svg>
