<svg width="30" height="24" viewBox="0 0 30 24" fill="none" xmlns="http://www.w3.org/2000/svg">
<path d="M0 22.5C0 23.0523 0.447715 23.5 1 23.5H29C29.5523 23.5 30 23.0523 30 22.5V19.1667C30 18.6144 29.5523 18.1667 29 18.1667H1C0.447716 18.1667 0 18.6144 0 19.1667V22.5ZM16 13.6667C16 14.219 16.4477 14.6667 17 14.6667H29C29.5523 14.6667 30 14.219 30 13.6667V10.3333C30 9.78105 29.5523 9.33333 29 9.33333H17C16.4477 9.33333 16 9.78105 16 10.3333V13.6667ZM1 0.5C0.447716 0.5 0 0.947715 0 1.5V4.83333C0 5.38562 0.447715 5.83333 1 5.83333H29C29.5523 5.83333 30 5.38562 30 4.83333V1.5C30 0.947716 29.5523 0.5 29 0.5H1Z" fill="#EEEEEE"/>
<path d="M13 14.6668H1C0.447715 14.6668 0 14.2191 0 13.6668V10.3335C0 9.78121 0.447716 9.3335 1 9.3335H13C13.5523 9.3335 14 9.78121 14 10.3335V13.6668C14 14.2191 13.5523 14.6668 13 14.6668Z" fill="#EEEEEE"/>
</svg>
