<svg width="175" height="30" viewBox="0 0 175 30" fill="none" xmlns="http://www.w3.org/2000/svg">
<path d="M73.3267 13.6017L88.1975 0.00084854H76.5183L55.1442 18.3843V0.00084854H46.1099V29.9991H54.3153L66.7846 19.3659L75.7211 29.9991H87.566L73.3267 13.6017Z" fill="white"/>
<path d="M121.744 19.4451C121.558 20.4346 121.21 21.2204 120.738 21.9048C120.223 22.306 119.651 22.5397 118.829 22.6015H99.3656C99.3656 22.6015 99.3894 17.2377 99.3894 14.5055C99.3894 11.7345 99.3656 7.25794 99.3656 7.25794L115.595 7.26676C117.31 7.26764 119.389 7.15299 120.456 7.98992C121.615 8.90094 121.675 10.5986 121.907 12.2813C122.062 13.4366 122.023 14.6113 122.048 15.7402C122.07 16.9616 121.956 18.3224 121.744 19.4451ZM131.443 13.5389C131.225 9.45567 130.563 6.06824 129.676 4.27795C128.859 2.52647 127.54 1.27327 125.685 0.558923C124.576 0.132075 123.53 -0.0116753 122.021 0.0015535H90.4494C90.4494 0.0015535 90.6514 9.52445 90.6514 15.2278C90.6514 20.9329 90.4494 29.999 90.4494 29.999L122.021 29.9981C123.53 30.0113 124.576 29.8667 125.685 29.4407C127.54 28.7264 128.859 27.4714 129.676 25.7217C130.563 23.9314 131.225 20.544 131.443 16.4607C131.48 15.7402 131.465 13.9772 131.443 13.5389Z" fill="white"/>
<path d="M33.7749 22.6739H9.56021C9.42968 22.6739 8.73474 22.5955 8.73474 20.358C8.73474 18.1206 9.46496 17.9151 9.56021 17.9151H33.7749V22.6739ZM42.4856 5.44576C41.7571 3.0787 40.2843 1.43923 38.0372 0.577597C36.9269 0.151633 35.8818 0.00876243 34.3711 0.0202264C30.1635 0.0546222 10.3636 0.0202264 10.3636 0.0202264C9.97647 0.0237543 9.42968 -0.00711181 9.1607 0.0493314C7.95424 0.301558 7.09438 1.6844 7.02294 3.09193C6.98855 3.73837 6.99208 4.51799 7.12084 5.05242C7.33249 5.91405 7.8881 6.91591 8.6095 7.21841C9.25418 7.49003 10.4095 7.3798 11.3849 7.38773L33.6012 7.4089C33.8746 7.438 34.0915 7.65848 34.0915 7.9354C34.0915 7.96627 34.0986 7.98567 34.0986 8.01566V10.6764H7.88634C5.16651 10.6861 3.14782 11.6994 1.78438 13.368C1.32666 13.9262 0.941267 14.5013 0.635243 15.1777C-0.0985089 16.7925 -0.000616631 18.76 0.0170216 20.9066C0.0267227 22.1386 -0.0244269 23.2569 0.241029 24.339C0.749011 26.4256 1.99604 27.8861 3.62934 28.9188C4.46451 29.4435 5.24941 29.7107 6.32447 29.8748C6.88801 29.9594 7.4736 30.0044 8.29554 29.9991C8.55218 29.9974 42.7678 30 42.7678 30V9.23005C42.7986 7.9063 42.8595 6.6531 42.4856 5.44576Z" fill="white"/>
<path d="M166.712 22.6732H142.497V17.9127H166.712C166.809 17.9127 167.537 18.119 167.537 20.3573C167.537 22.5956 166.842 22.6732 166.712 22.6732ZM142.497 7.23711H163.172C163.757 7.23711 164.06 7.81123 164.1 8.77428C164.142 9.77967 163.836 10.5196 163.446 10.5196H142.497V7.23711ZM169.834 12.4554C170.982 11.3107 171.483 9.30696 171.483 7.02104C171.483 4.93267 170.844 3.08065 169.857 1.90241C168.629 0.324672 165.837 0.000127407 163.316 0.000127407H133.719C133.719 0.000127407 134.122 9.13058 134.122 14.8339C134.122 20.539 133.719 29.9984 133.719 29.9984H167.467H169.338C172.462 29.9984 174.997 26.036 174.997 21.1484C174.997 16.8217 172.456 13.2271 169.834 12.4554Z" fill="white"/>
</svg>
