<svg width="32" height="40" viewBox="0 0 32 40" fill="none" xmlns="http://www.w3.org/2000/svg">
<path d="M16 2.26613e-07C10.8322 0.000655459 5.72499 1.41951 0.697967 4.15209C0.486922 4.26654 0.310679 4.43586 0.187841 4.64217C0.0650019 4.84848 0.000123695 5.08414 5.31473e-05 5.32426C5.31473e-05 13.9931 -0.0378933 20.1293 1.91411 25.4544C3.86612 30.7794 7.82924 35.0463 15.2839 39.7913C15.4979 39.9276 15.7463 40 16 40C16.2537 40 16.5021 39.9276 16.7161 39.7913C24.1708 35.0463 28.1339 30.7794 30.0859 25.4544C32.0379 20.1293 31.9999 13.9931 31.9999 5.32426C31.9999 5.08414 31.935 4.84848 31.8122 4.64217C31.6893 4.43586 31.5131 4.26654 31.302 4.15209C26.2752 1.41961 21.1682 -0.000655006 16 2.26613e-07Z" fill="#9B7955"/>
<path fill-rule="evenodd" clip-rule="evenodd" d="M15.9959 0C10.8295 0.00140446 5.72366 1.42023 0.697967 4.15209C0.486922 4.26654 0.310679 4.43586 0.187841 4.64217C0.0650019 4.84848 0.000123695 5.08414 5.31475e-05 5.32426C5.31475e-05 5.48736 3.97153e-05 5.64956 2.63563e-05 5.81088C-0.000670327 14.2237 -0.00116768 20.2295 1.91411 25.4544C3.86612 30.7794 7.82924 35.0463 15.2839 39.7913C15.4967 39.9269 15.7436 39.9992 15.9959 40V0Z" fill="#523A34" fill-opacity="0.5"/>
<path fill-rule="evenodd" clip-rule="evenodd" d="M24.8 14.5516L14.8167 27.1999L7.20001 19.661L9.23267 17.6491L14.5518 22.9139L22.5347 12.7999L24.8 14.5516Z" fill="#F0D8BA"/>
</svg>
