<svg width="34" height="34" viewBox="0 0 34 34" fill="none" xmlns="http://www.w3.org/2000/svg">
<path d="M30.9844 24.5085L31.4088 15.5049C31.4076 13.8061 30.0249 12.4234 28.3136 12.4234C27.7706 12.4234 27.2606 12.5637 26.8179 12.8147C26.6183 11.3077 25.3223 10.1417 23.7501 10.1417C23.2082 10.1428 22.6983 10.2832 22.2545 10.5307C22.0513 9.02476 20.7588 7.85766 19.1867 7.85996C18.655 7.85996 18.1542 7.99574 17.7184 8.23302L17.7184 4.18976C17.7184 2.49216 16.3368 1.1083 14.6232 1.1083C12.9245 1.10718 11.5418 2.48991 11.5418 4.18976L11.5418 19.7237L6.21169 15.8402C4.78896 14.7735 2.76851 14.9162 1.51017 16.1745C0.566659 17.118 0.566658 18.6536 1.51017 19.5971L12.2674 30.3543C13.9433 32.0303 16.1714 32.9532 18.5421 32.9532L22.1312 32.9532C24.4986 32.9544 26.7244 32.0314 28.3981 30.3577C29.961 28.7948 30.8794 26.7173 30.9844 24.5085ZM22.1313 31.34L18.5422 31.34C16.6027 31.34 14.7796 30.5847 13.4083 29.2134L2.65107 18.4562C2.33619 18.1413 2.33619 17.6302 2.65107 17.3153C3.34473 16.6216 4.45932 16.5429 5.25224 17.1373L11.8727 21.9598C12.118 22.1389 12.442 22.164 12.7136 22.0271C12.9828 21.8902 13.1539 21.6118 13.1539 21.3083L13.1538 4.18859C13.1538 3.37861 13.8121 2.72029 14.6358 2.72029C15.0408 2.72142 15.4082 2.8857 15.674 3.15154C15.9399 3.41738 16.1041 3.78472 16.1053 4.18976L16.1053 15.6053C16.1053 16.0502 16.467 16.4119 16.9119 16.4119C17.1344 16.4107 17.3363 16.3207 17.4823 16.1746C17.6284 16.0286 17.7185 15.8267 17.7185 15.6053L17.7185 10.9437C17.7185 10.1337 18.3768 9.47542 19.2005 9.47542C20.0082 9.47542 20.6688 10.136 20.6688 10.9437L20.6688 15.6053C20.6688 16.0502 21.0304 16.4119 21.4754 16.4119C21.6979 16.4107 21.8998 16.3207 22.0458 16.1746C22.1919 16.0286 22.282 15.8267 22.282 15.6145V13.2346C22.282 12.4246 22.9403 11.7663 23.764 11.7663C24.5717 11.7663 25.2323 12.4269 25.2323 13.2346L25.2323 15.6145C25.2323 15.6167 25.2323 15.6167 25.2323 15.6167L25.2323 15.619C25.2323 15.6212 25.2323 15.6212 25.2323 15.6212C25.2323 15.6235 25.2323 15.6235 25.2323 15.6235L25.2334 15.6246C25.2345 15.6257 25.2334 15.6268 25.2334 15.6268C25.2448 16.0626 25.6019 16.4106 26.04 16.4106C26.4849 16.4106 26.8466 16.0489 26.8466 15.604V15.5059C26.8466 15.1135 26.9995 14.7438 27.2767 14.4666C27.5539 14.1893 27.9213 14.0365 28.3274 14.0365C29.1363 14.0376 29.7935 14.6971 29.7969 15.4672L29.3736 24.4332C29.2869 26.2381 28.5363 27.938 27.2573 29.2169C25.8882 30.5859 24.0685 31.34 22.1313 31.34Z" fill="url(#poster-icon-finger0_linear)"/>
<defs>
<linearGradient id="poster-icon-finger0_linear" x1="26.8908" y1="9.71541" x2="9.25965" y2="27.3466" gradientUnits="userSpaceOnUse">
<stop stop-color="#FFF2AD"/>
<stop offset="1" stop-color="#FE2683"/>
</linearGradient>
</defs>
</svg>
