<svg width="32" height="32" viewBox="0 0 32 32" fill="none" xmlns="http://www.w3.org/2000/svg">
<path d="M11.0606 13.875L20.9395 13.875C21.4762 13.875 21.9735 13.6324 22.304 13.2095C22.6345 12.7866 22.7495 12.2452 22.6197 11.7244L21.8819 8.76575C21.5283 7.34775 20.4687 6.26069 19.133 5.83869C19.5294 5.243 19.761 4.52862 19.761 3.761C19.761 1.68719 18.0738 3.62597e-07 16 0C13.9262 -3.62597e-07 12.239 1.68719 12.239 3.76106C12.239 4.52869 12.4707 5.243 12.867 5.83875C11.5313 6.26075 10.4717 7.34781 10.1182 8.76581L9.3804 11.7245C9.25053 12.2453 9.36559 12.7866 9.69603 13.2096C10.0265 13.6326 10.5238 13.875 11.0606 13.875ZM16 1.875C17.04 1.875 17.886 2.72106 17.886 3.76106C17.886 4.801 17.04 5.64706 16 5.64706C14.9601 5.64706 14.114 4.801 14.114 3.76106C14.114 2.72106 14.9601 1.875 16 1.875ZM11.9374 9.21937C12.1866 8.22 13.08 7.52206 14.1098 7.52206L17.8902 7.52206C18.9201 7.52206 19.8134 8.22 20.0626 9.21937L20.756 12L11.2441 12L11.9374 9.21937Z" fill="url(#poster-icon-hands0_linear)"/>
<path d="M31.9764 9.51076C31.9731 8.08289 30.9029 6.86695 29.4872 6.68233C28.6716 6.5757 27.8492 6.8262 27.2311 7.36889C26.6129 7.9117 26.2584 8.6947 26.2584 9.51726L26.2585 14.0729C26.1996 14.0692 26.1402 14.0673 26.0806 14.0673C25.3404 14.0673 24.6444 14.3556 24.1211 14.879L21.6634 17.3366C21.6394 17.3606 21.6061 17.3719 21.5726 17.3683C21.5556 17.3663 21.5386 17.3648 21.5214 17.3638L20.4192 17.2979C19.5042 17.2011 18.6074 17.5178 17.9556 18.1695L16.4355 19.6896C16.2772 19.8478 16.1324 20.0158 16.0001 20.1913C15.8677 20.0157 15.7228 19.8478 15.5646 19.6896L14.0445 18.1694C13.3927 17.5178 12.4963 17.2012 11.5809 17.2979L10.4787 17.3638C10.4616 17.3649 10.4446 17.3663 10.4276 17.3683C10.3935 17.3721 10.3608 17.3606 10.3368 17.3367L7.87907 14.879C7.35563 14.3556 6.65976 14.0673 5.91951 14.0673C5.85994 14.0673 5.80057 14.0692 5.74163 14.0729L5.74169 9.51726C5.7417 8.69469 5.38726 7.9117 4.76907 7.36888C4.15095 6.82607 3.32864 6.57563 2.51295 6.68232C1.09714 6.86695 0.0270122 8.08288 0.0236995 9.51076L1.01747e-05 19.8441C-0.00242751 20.9219 0.433259 21.9771 1.19532 22.7392L7.1875 28.7313V30.4375C7.1875 31.2991 7.88844 32 8.75 32H15.375C15.5972 32 15.8084 31.9531 16 31.8691C16.1916 31.9531 16.4028 32 16.625 32H23.25C24.1116 32 24.8125 31.2991 24.8125 30.4375V28.7313L30.8047 22.7392C31.5667 21.9771 32.0024 20.9219 32 19.8441L31.9764 9.51076ZM29.4789 21.4134L23.2121 27.6801C23.0363 27.8559 22.9375 28.0944 22.9375 28.343V30.125L16.9375 30.125L16.9375 23.0043C16.9375 22.253 17.2301 21.5468 17.7613 21.0156L19.2814 19.4955C19.5328 19.2441 19.8796 19.123 20.2327 19.1638C20.2497 19.1658 20.2668 19.1673 20.284 19.1683L21.388 19.2343C21.9832 19.2944 22.5652 19.0865 22.9892 18.6626L25.4469 16.2049C25.7964 15.8556 26.3649 15.8555 26.7144 16.2049C27.0639 16.5544 27.0639 17.1229 26.7144 17.4724L23.2122 20.9747C22.8461 21.3408 22.8461 21.9344 23.2122 22.3005C23.5782 22.6666 24.1719 22.6666 24.538 22.3005L28.0402 18.7983C28.5637 18.2748 28.8519 17.5789 28.8519 16.8386C28.8519 16.1437 28.5979 15.4878 28.1336 14.977L28.1336 9.51739C28.1336 9.23007 28.2524 8.96751 28.4682 8.77801C28.6841 8.58845 28.9598 8.50476 29.2448 8.5417C29.7321 8.60526 30.1003 9.02376 30.1015 9.51514L30.125 19.8484C30.1263 20.431 29.8908 21.0014 29.4789 21.4134ZM2.5212 21.4134C2.10926 21.0014 1.87376 20.4309 1.87507 19.8484L1.8987 9.51507C1.89982 9.02363 2.26814 8.60507 2.75539 8.54157C3.04032 8.50457 3.31601 8.58832 3.53188 8.77788C3.74776 8.96738 3.86657 9.22995 3.86657 9.51726L3.86651 14.9769C3.40226 15.4876 3.1482 16.1436 3.1482 16.8385C3.1482 17.5788 3.43645 18.2747 3.95988 18.7981L7.46213 22.3004C7.82819 22.6664 8.42182 22.6664 8.78794 22.3004C9.15407 21.9343 9.15407 21.3407 8.78794 20.9746L5.28563 17.4724C4.93619 17.1229 4.93619 16.5544 5.28563 16.2049C5.63513 15.8555 6.20363 15.8556 6.55313 16.2049L9.01088 18.6626C9.43475 19.0865 10.0167 19.2944 10.6121 19.2343L11.7161 19.1683C11.7332 19.1673 11.7503 19.1658 11.7674 19.1638C12.1203 19.1234 12.4673 19.2441 12.7186 19.4954L14.2387 21.0156C14.77 21.5468 15.0625 22.2531 15.0625 23.0043L15.0625 30.125H9.0625V28.343C9.0625 28.0943 8.96369 27.8559 8.78788 27.6801L2.5212 21.4134Z" fill="url(#poster-icon-hands1_linear)"/>
<defs>
<linearGradient id="poster-icon-hands0_linear" x1="16" y1="0" x2="16" y2="32" gradientUnits="userSpaceOnUse">
<stop stop-color="#FFF2AD"/>
<stop offset="1" stop-color="#FE2683"/>
</linearGradient>
<linearGradient id="poster-icon-hands1_linear" x1="16" y1="0" x2="16" y2="32" gradientUnits="userSpaceOnUse">
<stop stop-color="#FFF2AD"/>
<stop offset="1" stop-color="#FE2683"/>
</linearGradient>
</defs>
</svg>
