<svg width="30" height="25" viewBox="0 0 30 25" fill="none" xmlns="http://www.w3.org/2000/svg">
<path d="M23.8477 0H6.15234C2.75986 0 0 2.73216 0 6.0906V15.8904C0 19.2488 2.75986 21.981 6.15234 21.981H7.06535L9.20517 24.6685C9.37202 24.8779 9.62631 25 9.89548 25C10.1646 25 10.4192 24.8779 10.5858 24.6685L12.7256 21.981H23.8477C27.2401 21.981 30 19.2488 30 15.8904V6.0906C30 2.73216 27.2401 0 23.8477 0ZM28.1836 8.58235V13.4011H1.81641V8.58235H28.1836ZM6.15234 1.74017H23.8477C26.2708 1.74017 28.2422 3.69175 28.2422 6.0906V6.84218H1.75781V6.0906C1.75781 3.69175 3.72917 1.74017 6.15234 1.74017ZM23.8477 20.2408H12.2992C12.03 20.2408 11.7757 20.3629 11.6091 20.5723L9.89548 22.7244L8.18207 20.5723C8.01521 20.3629 7.76093 20.2408 7.49176 20.2408H6.15234C3.72917 20.2408 1.75781 18.2892 1.75781 15.8904V15.1413H28.2422V15.8904C28.2422 18.2892 26.2708 20.2408 23.8477 20.2408Z" fill="url(#poster-icon-message0_linear)"/>
<defs>
<linearGradient id="poster-icon-message0_linear" x1="15" y1="0" x2="15" y2="25" gradientUnits="userSpaceOnUse">
<stop stop-color="#FFF2AD"/>
<stop offset="1" stop-color="#FE2683"/>
</linearGradient>
</defs>
</svg>
