<svg width="34" height="25" viewBox="0 0 34 25" fill="none" xmlns="http://www.w3.org/2000/svg">
<path d="M29.5188 16.5507C28.546 15.894 27.2702 15.894 26.2895 16.5507C25.811 16.2263 25.2529 16.0602 24.6788 16.0602C23.084 16.0602 21.8002 17.3418 21.8002 18.9162C21.8002 20.4906 23.084 21.7801 24.6788 21.7801C25.2529 21.7801 25.811 21.614 26.2895 21.2896C27.6051 22.1757 29.3992 21.8276 30.2923 20.5222C31.1853 19.2168 30.8345 17.4367 29.5188 16.5507ZM28.8729 19.7469C28.4184 20.2849 27.6131 20.3561 27.0709 19.9051C27.0071 19.8576 26.9592 19.8023 26.9034 19.739C26.7519 19.557 26.5207 19.4542 26.2895 19.4621C26.0502 19.4621 25.827 19.5649 25.6755 19.7469C25.4363 20.0396 25.0695 20.2137 24.6867 20.2057C23.9771 20.2057 23.395 19.6361 23.395 18.932C23.387 18.22 23.9611 17.6504 24.6788 17.6504C25.0615 17.6504 25.4283 17.8244 25.6675 18.1171C25.9466 18.4573 26.4489 18.5127 26.7918 18.2358C26.8317 18.2042 26.8715 18.1646 26.9114 18.1171C27.3659 17.5792 28.1713 17.508 28.7135 17.9589C29.2557 18.4099 29.3274 19.2089 28.8729 19.7469Z" fill="url(#poster-icon-card0_linear)"/>
<path d="M33.9681 9.84177C33.9681 9.77057 34 9.69145 34 9.61234C34 9.53323 33.9681 9.46202 33.9681 9.39082V7.69778C33.9681 5.83861 32.4292 4.35127 30.5553 4.35127H29.5826V3.39399C29.5826 1.53481 28.0915 0 26.2176 0H3.38089C1.50707 0 3.14965e-05 1.53481 3.14965e-05 3.39399V17.3022C-0.00794223 19.1456 1.49909 20.6408 3.35697 20.6487C3.36494 20.6487 3.37292 20.6487 3.38089 20.6487H4.30584V21.606C4.31382 23.4731 5.82882 24.9921 7.71062 25H30.5553C32.4371 24.9842 33.9601 23.4731 33.9681 21.606V13.5522C33.9681 13.481 34 13.4019 34 13.3307C34 13.2595 33.9681 13.1804 33.9681 13.1092V9.84177ZM4.30584 7.69778V19.0665H3.38089C2.4081 19.0744 1.60275 18.299 1.59478 17.3339C1.59478 17.3259 1.59478 17.318 1.59478 17.3101V3.39399C1.59478 2.41297 2.38418 1.58228 3.38089 1.58228H26.2256C27.2223 1.58228 27.9958 2.41297 27.9958 3.39399V4.35127H7.71062C5.8368 4.35127 4.30584 5.83861 4.30584 7.69778ZM32.3734 21.606C32.3654 22.6028 31.56 23.4098 30.5553 23.4177H7.71062C6.70594 23.4098 5.90059 22.6028 5.90059 21.606V14.0823H32.3734V21.606ZM32.3734 12.5H5.90059V10.443H32.3734V12.5ZM32.3813 8.86076H5.90059V7.69778C5.90856 6.71677 6.71391 5.92563 7.71062 5.93354H30.5633C31.56 5.93354 32.3813 6.70886 32.3813 7.69778V8.86076Z" fill="url(#poster-icon-card1_linear)"/>
<defs>
<linearGradient id="poster-icon-card0_linear" x1="17" y1="0" x2="17" y2="25" gradientUnits="userSpaceOnUse">
<stop stop-color="#FFF2AD"/>
<stop offset="1" stop-color="#FE2683"/>
</linearGradient>
<linearGradient id="poster-icon-card1_linear" x1="17" y1="0" x2="17" y2="25" gradientUnits="userSpaceOnUse">
<stop stop-color="#FFF2AD"/>
<stop offset="1" stop-color="#FE2683"/>
</linearGradient>
</defs>
</svg>
